HIERARCHY
ROOT joint_Root
{
	OFFSET 0.0 0.0 0.0
	CHANNELS 6 Xposition Yposition Zposition Zrotation Xrotation Yrotation 
	JOINT Hips
	{
		OFFSET 4.5925 91.4895 -427.239
		CHANNELS 6 Xposition Yposition Zposition Zrotation Xrotation Yrotation 
		JOINT Spine
		{
			OFFSET 15.7357 0.0 0.0
			CHANNELS 6 Xposition Yposition Zposition Zrotation Xrotation Yrotation 
			JOINT Chest
			{
				OFFSET 8.98455 -0.406207 0.0
				CHANNELS 6 Xposition Yposition Zposition Zrotation Xrotation Yrotation 
				JOINT Neck
				{
					OFFSET 16.3773 0.0 0.0
					CHANNELS 6 Xposition Yposition Zposition Zrotation Xrotation Yrotation 
					JOINT Head
					{
						OFFSET 6.45672 0.0 0.0
						CHANNELS 6 Xposition Yposition Zposition Zrotation Xrotation Yrotation 
						End Site
						{
							OFFSET 0.0 0.0 0.0
						}
					}
				}
				JOINT Shoulder_L
				{
					OFFSET 12.9942 -0.242716 4.98039
					CHANNELS 6 Xposition Yposition Zposition Zrotation Xrotation Yrotation 
					JOINT UpperArm_L
					{
						OFFSET 5.34809 0.0 0.0
						CHANNELS 6 Xposition Yposition Zposition Zrotation Xrotation Yrotation 
						JOINT LowerArm_L
						{
							OFFSET 24.3286 1.87007e-05 0.0
							CHANNELS 6 Xposition Yposition Zposition Zrotation Xrotation Yrotation 
							JOINT Hand_L
							{
								OFFSET 22.2916 0.0 0.0
								CHANNELS 6 Xposition Yposition Zposition Zrotation Xrotation Yrotation 
								End Site
								{
									OFFSET 0.0 0.0 0.0
								}
							}
						}
					}
				}
				JOINT Shoulder_R
				{
					OFFSET 12.9945 -0.242716 -4.98039
					CHANNELS 6 Xposition Yposition Zposition Zrotation Xrotation Yrotation 
					JOINT UpperArm_R
					{
						OFFSET -5.34813 0.0 0.0
						CHANNELS 6 Xposition Yposition Zposition Zrotation Xrotation Yrotation 
						JOINT LowerArm_R
						{
							OFFSET -24.3289 0.000322201 0.0
							CHANNELS 6 Xposition Yposition Zposition Zrotation Xrotation Yrotation 
							JOINT Hand_R
							{
								OFFSET -22.2915 -0.000108084 0.0
								CHANNELS 6 Xposition Yposition Zposition Zrotation Xrotation Yrotation 
								End Site
								{
									OFFSET 0.0 0.0 0.0
								}
							}
						}
					}
				}
			}
		}
		JOINT UpperLeg_L
		{
			OFFSET -2.19248 -6.46944 0.0
			CHANNELS 6 Xposition Yposition Zposition Zrotation Xrotation Yrotation 
			JOINT LowerLeg_L
			{
				OFFSET 39.0811 0.0 -1.23785e-05
				CHANNELS 6 Xposition Yposition Zposition Zrotation Xrotation Yrotation 
				JOINT Foot_L
				{
					OFFSET 40.9854 0.0 -1.26872e-05
					CHANNELS 6 Xposition Yposition Zposition Zrotation Xrotation Yrotation 
					JOINT Toes_L
					{
						OFFSET 11.7543 0.0 0.0
						CHANNELS 6 Xposition Yposition Zposition Zrotation Xrotation Yrotation 
						End Site
						{
							OFFSET 0.0 0.0 0.0
						}
					}
				}
			}
		}
		JOINT UpperLeg_R
		{
			OFFSET -2.19251 6.46944 0.0
			CHANNELS 6 Xposition Yposition Zposition Zrotation Xrotation Yrotation 
			JOINT LowerLeg_R
			{
				OFFSET -39.0811 -0.00228153 -0.0401928
				CHANNELS 6 Xposition Yposition Zposition Zrotation Xrotation Yrotation 
				JOINT Foot_R
				{
					OFFSET -40.9854 0.0 0.0
					CHANNELS 6 Xposition Yposition Zposition Zrotation Xrotation Yrotation 
					JOINT Toes_R
					{
						OFFSET -11.7543 0.0 0.0
						CHANNELS 6 Xposition Yposition Zposition Zrotation Xrotation Yrotation 
						End Site
						{
							OFFSET 0.0 0.0 0.0
						}
					}
				}
			}
		}
	}
}
MOTION
Frames:	6
Frame Time:	0.0333333
0.000000 0.000000 0.000000 0.000000 0.000000 -0.000000 -1.290220 92.528200 -0.202233 88.351100 -1.869970 2.125270 15.735700 0.000005 -0.000001 77.397900 87.513700 -77.165600 8.984550 -0.406207 -0.000000 -2.911190 -1.106120 0.436468 16.377300 -0.000001 -0.000001 3.144090 -2.125550 1.859750 6.456720 -0.000001 -0.000000 -2.482620 -0.707186 2.499010 12.994200 -0.242716 4.980390 -83.913700 -11.160200 -61.149800 5.348090 -0.000007 -0.000001 -69.118100 -63.652300 -111.386000 24.328600 0.000019 0.000005 4.776050 4.520100 -46.673100 22.291600 -0.000001 0.000005 14.721300 5.338520 -1.035530 12.994500 -0.242716 -4.980390 94.828900 -11.321200 -66.715500 -5.348130 -0.000001 -0.000004 -54.882400 -66.882000 -97.656100 -24.328900 0.000322 -0.000009 -4.847840 -5.771570 -40.137300 -22.291500 -0.000108 -0.000004 18.664500 5.513510 -7.087660 -2.192480 -6.469440 -0.000000 -174.509000 -12.698500 -3.618180 39.081100 -0.000007 -0.000012 -0.096871 0.253943 20.880200 40.985400 -0.000006 -0.000013 -0.402541 7.914430 -64.946900 11.754300 -0.000000 0.000003 -0.000112 -0.001138 -16.621100 -2.192510 6.469440 -0.000001 178.095000 24.483800 177.813000 -39.081100 -0.002282 -0.040193 0.008531 -0.014735 19.469500 -40.985400 0.000008 0.000006 6.524930 16.968800 -65.951900 -11.754300 -0.000006 -0.000006 -0.001505 -0.022345 -17.481700
0.000000 0.000000 0.000000 0.000000 0.000000 -0.000000 -1.243420 92.539900 -0.276787 88.306400 -2.146360 2.056860 15.735700 0.000005 -0.000001 78.135400 87.483900 -77.883000 8.984550 -0.406207 -0.000000 -2.839080 -1.057590 0.478823 16.377300 -0.000001 -0.000001 3.161570 -2.061920 1.791060 6.456720 -0.000001 -0.000000 -2.485310 -0.730979 2.528440 12.994200 -0.242716 4.980390 -83.798100 -11.252100 -60.886000 5.348090 -0.000007 -0.000001 -70.076500 -64.098300 -113.291000 24.328600 0.000019 0.000005 4.662760 4.433850 -46.533000 22.291600 -0.000001 0.000005 14.609100 5.342440 -1.151760 12.994500 -0.242716 -4.980390 94.811500 -11.307300 -66.765600 -5.348130 -0.000001 -0.000004 -54.305000 -66.911100 -97.781000 -24.328900 0.000322 -0.000009 -4.583220 -5.482670 -39.990000 -22.291500 -0.000108 -0.000004 18.553400 5.511230 -6.992560 -2.192480 -6.469440 -0.000000 -174.514000 -12.805500 -3.687390 39.081100 -0.000007 -0.000012 -0.096124 0.252197 20.864100 40.985400 -0.000006 -0.000013 -0.398481 7.783150 -64.917500 11.754300 -0.000000 0.000003 -0.000114 -0.001147 -16.621500 -2.192510 6.469440 -0.000001 178.164000 24.403500 177.691000 -39.081100 -0.002282 -0.040193 0.008577 -0.014930 19.389800 -40.985400 0.000008 0.000006 6.504380 17.144200 -65.842400 -11.754300 -0.000006 -0.000006 -0.001546 -0.022883 -17.503600
0.000000 0.000000 0.000000 0.000000 0.000000 -0.000000 -1.181240 92.560900 -0.320040 88.306800 -2.365380 1.990930 15.735700 0.000005 -0.000001 78.664500 87.471200 -78.377000 8.984550 -0.406207 -0.000000 -2.804600 -1.020240 0.550128 16.377300 -0.000001 -0.000001 3.290010 -1.944140 1.668110 6.456720 -0.000001 -0.000000 -2.537570 -0.661575 2.538750 12.994200 -0.242716 4.980390 -83.726800 -11.258500 -60.618500 5.348090 -0.000007 -0.000001 -70.538900 -64.388600 -114.205000 24.328600 0.000019 0.000005 4.917330 4.637810 -46.777000 22.291600 -0.000001 0.000005 14.445100 5.335500 -0.946671 12.994500 -0.242716 -4.980390 94.778200 -11.178100 -66.674800 -5.348130 -0.000001 -0.000004 -53.973100 -66.655400 -98.071100 -24.328900 0.000322 -0.000009 -4.149300 -4.907860 -40.289200 -22.291500 -0.000108 -0.000004 18.418700 5.506110 -6.781220 -2.192480 -6.469440 -0.000000 -174.584000 -12.889200 -3.685730 39.081100 -0.000007 -0.000012 -0.096587 0.255198 20.730500 40.985400 -0.000006 -0.000013 -0.386864 7.628450 -64.846900 11.754300 -0.000000 0.000003 -0.000109 -0.001104 -16.619800 -2.192510 6.469440 -0.000001 178.159000 24.310200 177.635000 -39.081100 -0.002282 -0.040193 0.008561 -0.014996 19.254200 -40.985400 0.000008 0.000006 6.436710 17.298600 -65.708900 -11.754300 -0.000006 -0.000006 -0.001616 -0.023804 -17.541000
0.000000 0.000000 0.000000 0.000000 0.000000 -0.000000 -1.111660 92.567000 -0.318265 88.307100 -2.512640 1.985310 15.735700 0.000005 -0.000001 78.973200 87.438900 -78.644600 8.984550 -0.406207 -0.000000 -2.735570 -1.009460 0.633187 16.377300 -0.000001 -0.000001 3.461980 -1.884060 1.640450 6.456720 -0.000001 -0.000000 -2.557620 -0.517298 2.469000 12.994200 -0.242716 4.980390 -83.771700 -11.126300 -60.509700 5.348090 -0.000007 -0.000001 -69.923000 -64.765200 -113.718000 24.328600 0.000019 0.000005 4.785030 4.412620 -47.413300 22.291600 -0.000001 0.000005 14.477100 5.336230 -0.967972 12.994500 -0.242716 -4.980390 94.733700 -11.037200 -66.609800 -5.348130 -0.000001 -0.000004 -52.960900 -66.308700 -97.356400 -24.328900 0.000322 -0.000009 -4.170130 -4.759130 -41.300800 -22.291500 -0.000108 -0.000004 18.384700 5.502100 -6.618020 -2.192480 -6.469440 -0.000000 -174.627000 -13.009200 -3.651360 39.081100 -0.000007 -0.000012 -0.095686 0.253310 20.693600 40.985400 -0.000006 -0.000013 -0.348932 7.588270 -64.847000 11.754300 -0.000000 0.000003 -0.000108 -0.001095 -16.619500 -2.192510 6.469440 -0.000001 178.131000 24.181000 177.708000 -39.081100 -0.002282 -0.040193 0.008512 -0.015003 19.080700 -40.985400 0.000008 0.000006 6.471020 17.316200 -65.738700 -11.754300 -0.000006 -0.000006 -0.001602 -0.023622 -17.533600
0.000000 0.000000 0.000000 0.000000 0.000000 -0.000000 -1.056980 92.574100 -0.294371 88.315100 -2.517230 2.066810 15.735700 0.000005 -0.000001 78.467700 87.371400 -78.107700 8.984550 -0.406207 -0.000000 -2.611680 -1.083250 0.695429 16.377300 -0.000001 -0.000001 3.627460 -1.830540 1.664980 6.456720 -0.000001 -0.000000 -2.525920 -0.361335 2.525070 12.994200 -0.242716 4.980390 -83.897600 -10.896500 -60.508900 5.348090 -0.000007 -0.000001 -68.473800 -64.939000 -111.884000 24.328600 0.000019 0.000005 4.599350 4.039170 -48.796000 22.291600 -0.000001 0.000005 14.462800 5.335410 -0.943992 12.994500 -0.242716 -4.980390 94.657200 -10.813000 -66.527900 -5.348130 -0.000001 -0.000004 -51.472800 -65.610100 -95.785800 -24.328900 0.000322 -0.000009 -4.525540 -4.848740 -43.111300 -22.291500 -0.000108 -0.000004 18.542800 5.498170 -6.460360 -2.192480 -6.469440 -0.000000 -174.642000 -13.105300 -3.512330 39.081100 -0.000007 -0.000012 -0.094855 0.251972 20.629000 40.985400 -0.000006 -0.000013 -0.295748 7.678080 -64.843200 11.754300 -0.000000 0.000003 -0.000111 -0.001121 -16.620500 -2.192510 6.469440 -0.000001 178.030000 24.199900 177.896000 -39.081100 -0.002282 -0.040193 0.008365 -0.014692 18.941900 -40.985400 0.000008 0.000006 6.407150 17.377800 -65.718100 -11.754300 -0.000006 -0.000006 -0.001527 -0.022636 -17.493600
0.000000 0.000000 0.000000 0.000000 0.000000 -0.000000 -1.015260 92.572100 -0.253052 88.326500 -2.433670 2.149500 15.735700 0.000005 -0.000001 77.446500 87.290900 -77.053800 8.984550 -0.406207 -0.000000 -2.473370 -1.212340 0.759304 16.377300 -0.000001 -0.000001 3.798180 -1.831470 1.689230 6.456720 -0.000001 -0.000000 -2.525080 -0.226350 2.566370 12.994200 -0.242716 4.980390 -84.073300 -10.603200 -60.569500 5.348090 -0.000007 -0.000001 -65.872300 -64.739400 -108.067000 24.328600 0.000019 0.000005 4.208060 3.366830 -51.408200 22.291600 -0.000001 0.000005 14.746400 5.333900 -0.899503 12.994500 -0.242716 -4.980390 94.567300 -10.562300 -66.452300 -5.348130 -0.000001 -0.000004 -49.280400 -64.445900 -92.911400 -24.328900 0.000322 -0.000009 -5.030500 -4.872780 -46.009800 -22.291500 -0.000108 -0.000004 19.008500 5.494260 -6.304760 -2.192480 -6.469440 -0.000000 -174.644000 -13.208100 -3.407800 39.081100 -0.000007 -0.000012 -0.094003 0.249726 20.627500 40.985400 -0.000006 -0.000013 -0.229347 7.869840 -64.870500 11.754300 -0.000000 0.000003 -0.000115 -0.001160 -16.621900 -2.192510 6.469440 -0.000001 177.915000 24.367900 178.123000 -39.081100 -0.002282 -0.040193 0.008024 -0.013816 18.787400 -40.985400 0.000008 0.000006 6.369950 17.490200 -65.780500 -11.754300 -0.000006 -0.000006 -0.001453 -0.021647 -17.453400
